<svg xmlns="http://www.w3.org/2000/svg" width="152" height="131.957" viewBox="0 0 152 131.957">
  <g id="CF-login-logo" transform="translate(-69.144 -90.535)">
    <g id="Text" transform="translate(70.567 200.243)">
      <g id="Group_6" data-name="Group 6" transform="translate(0)">
        <path id="Path_63" data-name="Path 63" d="M81.171,374.01H77.722a5.294,5.294,0,0,1-3.861-1.33,5.111,5.111,0,0,1-1.361-3.829V358.819a5.112,5.112,0,0,1,1.361-3.829,5.3,5.3,0,0,1,3.861-1.329h3.449a5.269,5.269,0,0,1,3.845,1.345,5.086,5.086,0,0,1,1.377,3.813v1.488a.616.616,0,0,1-.7.7H83.039q-.664,0-.665-.7v-1.3a1.575,1.575,0,0,0-1.867-1.867H78.355a1.94,1.94,0,0,0-1.408.427,1.991,1.991,0,0,0-.427,1.44v9.653a1.99,1.99,0,0,0,.427,1.44,1.94,1.94,0,0,0,1.408.427h2.152a1.575,1.575,0,0,0,1.867-1.867v-1.3q0-.7.665-.7H85.7a.616.616,0,0,1,.7.7v1.488a5.086,5.086,0,0,1-1.377,3.813A5.267,5.267,0,0,1,81.171,374.01Z" transform="translate(-72.5 -351.762)" fill="#fff"/>
        <path id="Path_64" data-name="Path 64" d="M116.369,371.432h-2.69a.588.588,0,0,1-.665-.665V349.849a.588.588,0,0,1,.665-.665h2.69a.588.588,0,0,1,.665.665v20.919A.588.588,0,0,1,116.369,371.432Z" transform="translate(-95.83 -349.184)" fill="#fff"/>
        <path id="Path_65" data-name="Path 65" d="M138.362,379.725h-2.817a5.294,5.294,0,0,1-3.861-1.33,5.112,5.112,0,0,1-1.361-3.829v-5.823a5.114,5.114,0,0,1,1.361-3.83,5.3,5.3,0,0,1,3.861-1.329h2.817a5.27,5.27,0,0,1,3.845,1.345,5.087,5.087,0,0,1,1.377,3.813v5.823a5.087,5.087,0,0,1-1.377,3.813A5.268,5.268,0,0,1,138.362,379.725Zm-2.216-3.45h1.614a2.041,2.041,0,0,0,1.44-.411,1.929,1.929,0,0,0,.428-1.424v-5.57a1.93,1.93,0,0,0-.428-1.424,2.043,2.043,0,0,0-1.44-.411h-1.614a1.534,1.534,0,0,0-1.835,1.835v5.57a1.534,1.534,0,0,0,1.835,1.835Z" transform="translate(-105.797 -357.476)" fill="#fff"/>
        <path id="Path_66" data-name="Path 66" d="M174.655,379.725h-1.045a4.82,4.82,0,0,1-3.687-1.33,5.38,5.38,0,0,1-1.25-3.829V364.249a.587.587,0,0,1,.665-.665h2.69a.588.588,0,0,1,.665.665v10.127a1.992,1.992,0,0,0,.427,1.44,1.942,1.942,0,0,0,1.409.427H175.7q2.184,0,2.184-2.4v-9.589a.588.588,0,0,1,.665-.665h2.658q.7,0,.7.665V379.06q0,.664-.7.665h-2.658a.588.588,0,0,1-.665-.665v-1.045h-.127a2.4,2.4,0,0,1-1.234,1.282A4.252,4.252,0,0,1,174.655,379.725Z" transform="translate(-127.881 -357.476)" fill="#fff"/>
        <path id="Path_67" data-name="Path 67" d="M213.557,371.432h-1.3a4.821,4.821,0,0,1-3.687-1.33,5.382,5.382,0,0,1-1.25-3.829v-5.823a5.384,5.384,0,0,1,1.25-3.83,4.823,4.823,0,0,1,3.687-1.329h1.3a4.249,4.249,0,0,1,1.867.427A2.4,2.4,0,0,1,216.658,357h.126v-7.152a.588.588,0,0,1,.665-.665h2.69a.587.587,0,0,1,.664.665v20.919a.587.587,0,0,1-.664.665h-2.69a.588.588,0,0,1-.665-.665v-1.045h-.126a2.4,2.4,0,0,1-1.234,1.282A4.249,4.249,0,0,1,213.557,371.432Zm3.228-5.887v-4.368q0-2.4-2.183-2.4h-1.425a1.931,1.931,0,0,0-1.424.427,2.042,2.042,0,0,0-.411,1.44v5.443a2.042,2.042,0,0,0,.411,1.44,1.931,1.931,0,0,0,1.424.427H214.6Q216.784,367.951,216.785,365.546Z" transform="translate(-150.136 -349.184)" fill="#fff"/>
        <path id="Path_68" data-name="Path 68" d="M251.414,374.01h-2.69a.588.588,0,0,1-.665-.665V354.325a.588.588,0,0,1,.665-.664h10.1q.633,0,.633.664v2.153q0,.664-.633.664h-6.361q-.38,0-.38.348V362.4a.335.335,0,0,0,.38.38h5.412a.587.587,0,0,1,.664.665v2.12q0,.7-.664.7h-5.412q-.38,0-.38.348v6.741A.588.588,0,0,1,251.414,374.01Z" transform="translate(-173.594 -351.762)" fill="#fff"/>
        <path id="Path_69" data-name="Path 69" d="M286.124,379.725h-.759a5.3,5.3,0,0,1-3.861-1.33,5.111,5.111,0,0,1-1.361-3.829v-5.823a5.113,5.113,0,0,1,1.361-3.83,5.3,5.3,0,0,1,3.861-1.329h7.311q.7,0,.7.665V379.06q0,.664-.7.665h-2.659a.588.588,0,0,1-.665-.665v-1.045h-.126a2.4,2.4,0,0,1-1.234,1.282A4.251,4.251,0,0,1,286.124,379.725Zm3.228-5.886v-6.425q0-.347-.38-.348H286a1.93,1.93,0,0,0-1.424.427,2.04,2.04,0,0,0-.411,1.44v5.443a2.04,2.04,0,0,0,.411,1.44,1.93,1.93,0,0,0,1.424.427h1.171Q289.352,376.243,289.352,373.838Z" transform="translate(-192.069 -357.476)" fill="#fff"/>
        <path id="Path_70" data-name="Path 70" d="M319.538,370.768V349.849a.588.588,0,0,1,.665-.665h2.69a.588.588,0,0,1,.665.665v7.12h.126a2.467,2.467,0,0,1,1.234-1.3,4.123,4.123,0,0,1,1.868-.443H327.8a5.3,5.3,0,0,1,3.861,1.329,5.114,5.114,0,0,1,1.361,3.829v5.887a5.113,5.113,0,0,1-1.361,3.829,5.3,5.3,0,0,1-3.861,1.33h-7.6A.588.588,0,0,1,319.538,370.768Zm4.368-2.817h3.228A1.575,1.575,0,0,0,329,366.084v-5.507a1.576,1.576,0,0,0-1.867-1.867h-1.393q-2.184,0-2.184,2.4V367.6A.308.308,0,0,0,323.906,367.951Z" transform="translate(-214.755 -349.184)" fill="#fff"/>
        <path id="Path_71" data-name="Path 71" d="M362.138,379.725h-2.69a.588.588,0,0,1-.665-.665V364.249a.588.588,0,0,1,.665-.665h2.69a.588.588,0,0,1,.665.665v1.076h.126a2.467,2.467,0,0,1,1.234-1.3,4.122,4.122,0,0,1,1.867-.443h1.139q.633,0,.633.665v2.184a.736.736,0,0,1-.143.522.6.6,0,0,1-.491.111h-2.183q-2.184,0-2.184,2.468v9.526A.588.588,0,0,1,362.138,379.725Z" transform="translate(-237.353 -357.476)" fill="#fff"/>
        <path id="Path_72" data-name="Path 72" d="M385.2,352.57v-2.753a.56.56,0,0,1,.633-.633h2.753q.632,0,.633.6v2.785a.56.56,0,0,1-.633.633h-2.753A.56.56,0,0,1,385.2,352.57Zm0,18.2V355.957q0-.664.633-.665h2.721a.588.588,0,0,1,.665.665v14.811a.73.73,0,0,1-.143.538.74.74,0,0,1-.49.127H385.86A.588.588,0,0,1,385.2,370.768Z" transform="translate(-252.563 -349.184)" fill="#fff"/>
        <path id="Path_73" data-name="Path 73" d="M413.107,376.908v2.184a.681.681,0,0,1-.143.491.736.736,0,0,1-.522.143h-4.715a5.3,5.3,0,0,1-3.861-1.33,5.111,5.111,0,0,1-1.361-3.829v-5.823a5.113,5.113,0,0,1,1.361-3.83,5.3,5.3,0,0,1,3.861-1.329h4.715a.587.587,0,0,1,.665.665v2.184a.679.679,0,0,1-.143.49.736.736,0,0,1-.522.143H408.36a1.939,1.939,0,0,0-1.408.427,1.992,1.992,0,0,0-.427,1.44v5.443a1.992,1.992,0,0,0,.427,1.44,1.939,1.939,0,0,0,1.408.427h4.083A.587.587,0,0,1,413.107,376.908Z" transform="translate(-262.53 -357.476)" fill="#fff"/>
      </g>
    </g>
    <g id="Cloud" transform="translate(69.144 90.535)">
      <path id="Path_74" data-name="Path 74" d="M213.138,135.45a28.822,28.822,0,0,0-14.175-8.849,40.48,40.48,0,0,0-73.417-18.777,25.3,25.3,0,0,0-37.077,27.614,24.118,24.118,0,0,0,4.792,47.754h98.2a28.79,28.79,0,0,0,21.675-47.743Zm-44.226,31.412a4.456,4.456,0,0,0,.768-1.31l9.683.625a4.458,4.458,0,0,0,1.556,2.657l-3.215,9.472Zm-24.971-7.315,5.414-9.973a4.415,4.415,0,0,0,3.315-.373l9.292,12.1a4.431,4.431,0,0,0-.766,1.583l-15.709-1.014A4.462,4.462,0,0,0,143.941,159.547Zm15.574-33.134-7.9,14.546a4.345,4.345,0,0,0-2.522.11l-6.21-8.084a4.429,4.429,0,0,0,.895-2.668c0-.03,0-.059,0-.089l15.055-4.723A4.485,4.485,0,0,0,159.515,126.413Zm-20.193,8.363a4.425,4.425,0,0,0,1.926-.443l6.061,7.89a4.437,4.437,0,0,0,.2,6.312L142,158.67a4.436,4.436,0,0,0-4.922,2.654L118.4,160.118a4.464,4.464,0,0,0-3.711-3.349l-2.157-13.458a4.465,4.465,0,0,0,2.728-4.109c0-.008,0-.017,0-.026l20.36-6.387A4.457,4.457,0,0,0,139.322,134.776Zm-28.89,8.867,2.139,13.344a4.475,4.475,0,0,0-2.655,2.585l-11.256-.726a4.443,4.443,0,0,0-5.668-2.816l-3.517-5.607a4.365,4.365,0,0,0,.942-3.454l16.707-5.242A4.458,4.458,0,0,0,110.433,143.643Zm73.166,17.3a4.465,4.465,0,0,0-4.108,3.121l-9.558-.616a4.444,4.444,0,0,0-6.324-3.484l-9.365-12.19a4.443,4.443,0,0,0-.749-5.822l7.822-14.409a4.453,4.453,0,0,0,5.846-4.235c0-.137-.008-.271-.021-.405l24.228-7.6a36.022,36.022,0,0,1,3.447,12.59ZM74.731,151.889l7.293-2.288a4.447,4.447,0,0,0,5.756,2.11l3.426,5.462a4.472,4.472,0,0,0-.789,1.14L73.475,157.22A19.754,19.754,0,0,1,74.731,151.889ZM97.6,163.375a4.446,4.446,0,0,0,1.222-2.394l10.818.7a4.461,4.461,0,0,0,4.316,3.955l2.134,13.317h-9.97l.9-.563Zm18.431,1.8a4.47,4.47,0,0,0,2.364-2.935l18.357,1.184a4.438,4.438,0,0,0,1.209,2.687l-6.82,12.564.5.272h-13.4Zm23.719,2.087a4.444,4.444,0,0,0,5.8-3.271L161.173,165a4.449,4.449,0,0,0,6.025,3.108l8.327,10.839H133.408Zm38.306,11.5.547.186h-.4ZM216.015,154.4a24.437,24.437,0,0,1-3.031,11.82l-24.849-1.6a4.465,4.465,0,0,0-2.447-3.236l10.543-31.06A24.552,24.552,0,0,1,216.015,154.4Zm-25.631-41.017-23.934,7.509a4.5,4.5,0,0,0-.95-1.059L176.554,99.47A36.393,36.393,0,0,1,190.384,113.383ZM158.729,94.777a36.057,36.057,0,0,1,15.95,3.7l-11.1,20.453a4.456,4.456,0,0,0-5.332,4.372c0,.054.006.107.008.161l-15.021,4.712a4.447,4.447,0,0,0-5.57-1.994L127.39,112.811A36.223,36.223,0,0,1,158.729,94.777Zm-34.8,17.013,12.008,15.631a4.437,4.437,0,0,0-1.075,2.9,4.522,4.522,0,0,0,.026.476l-20.155,6.323a4.461,4.461,0,0,0-3.577-2.355l-4.02-25.084a21.033,21.033,0,0,1,16.793,2.112Zm-31.84,18.059A21.048,21.048,0,0,1,105.1,110.4l3.958,24.7a4.424,4.424,0,0,0-2.689,4.646L89.611,145A4.42,4.42,0,0,0,85,143.282L83.9,141.541A19.782,19.782,0,0,1,93.26,139.2q.522,0,1.037.027A20.952,20.952,0,0,1,92.091,129.849Zm-10,12.789,1.011,1.612a4.446,4.446,0,0,0-1.542,3.275l-5.586,1.752A19.97,19.97,0,0,1,82.088,142.639Zm-8.7,16.7,16.586,1.07a4.45,4.45,0,0,0,5.817,4.078l9.073,14.463H93.26A19.871,19.871,0,0,1,73.392,159.34Zm118.072,19.611h-11.74l3.121-9.194A4.46,4.46,0,0,0,188,166.734l23.725,1.531A24.52,24.52,0,0,1,191.464,178.951Z" transform="translate(-69.144 -90.535)" fill="red"/>
    </g>
  </g>
</svg>
