<svg id="Cloud" xmlns="http://www.w3.org/2000/svg" width="452" height="277.153" viewBox="0 0 452 277.153">
  <path id="Path_62" data-name="Path 62" d="M499.854,224.883a86.213,86.213,0,0,0-42.4-26.468,121.082,121.082,0,0,0-219.6-56.165,75.673,75.673,0,0,0-110.9,82.6A72.139,72.139,0,0,0,141.28,367.688H435.022a86.116,86.116,0,0,0,64.832-142.805ZM367.566,318.842a13.329,13.329,0,0,0,2.3-3.919l28.963,1.869a13.334,13.334,0,0,0,4.654,7.946l-9.617,28.333Zm-74.692-21.882,16.194-29.83a13.206,13.206,0,0,0,9.916-1.116l27.794,36.18a13.254,13.254,0,0,0-2.293,4.735L297.5,303.9A13.346,13.346,0,0,0,292.874,296.961Zm46.584-99.11-23.619,43.508a13,13,0,0,0-7.543.33l-18.575-24.181a13.247,13.247,0,0,0,2.676-7.979c0-.09-.013-.178-.014-.266l45.032-14.127A13.415,13.415,0,0,0,339.457,197.85Zm-60.4,25.016a13.236,13.236,0,0,0,5.76-1.326l18.13,23.6a13.272,13.272,0,0,0,.589,18.88l-16.458,30.316a13.267,13.267,0,0,0-14.721,7.938l-55.9-3.606a13.351,13.351,0,0,0-11.1-10.018L198.911,248.4a13.356,13.356,0,0,0,8.16-12.291c0-.025,0-.051,0-.077l60.9-19.106A13.333,13.333,0,0,0,279.059,222.866Zm-86.414,26.523,6.4,39.913a13.384,13.384,0,0,0-7.941,7.732l-33.669-2.172a13.291,13.291,0,0,0-16.953-8.424l-10.52-16.77a13.057,13.057,0,0,0,2.819-10.331l49.974-15.679A13.333,13.333,0,0,0,192.644,249.388ZM411.5,301.122a13.355,13.355,0,0,0-12.286,9.337l-28.591-1.843A13.294,13.294,0,0,0,351.7,298.194l-28.011-36.463a13.29,13.29,0,0,0-2.239-17.416l23.4-43.1a13.319,13.319,0,0,0,17.486-12.668c0-.41-.025-.812-.062-1.212L434.744,164.6a107.747,107.747,0,0,1,10.311,37.658ZM85.856,274.055l21.813-6.844a13.3,13.3,0,0,0,17.218,6.311l10.249,16.337a13.375,13.375,0,0,0-2.361,3.41L82.1,290A59.088,59.088,0,0,1,85.856,274.055Zm68.407,34.356a13.3,13.3,0,0,0,3.654-7.162l32.359,2.088a13.345,13.345,0,0,0,12.911,11.831L209.569,355H179.746l2.687-1.685Zm55.13,5.4a13.37,13.37,0,0,0,7.071-8.78l54.909,3.542a13.275,13.275,0,0,0,3.617,8.039l-20.4,37.58,1.5.813H216Zm70.946,6.243a13.293,13.293,0,0,0,17.346-9.783l46.731,3.014a13.307,13.307,0,0,0,18.022,9.3L387.344,355H261.366Zm114.579,34.4,1.637.556h-1.21Zm113.54-72.879a73.1,73.1,0,0,1-9.066,35.357l-74.326-4.8a13.355,13.355,0,0,0-7.321-9.68l31.537-92.906A73.438,73.438,0,0,1,508.457,281.566ZM431.792,158.877l-71.59,22.46a13.446,13.446,0,0,0-2.842-3.167l33.066-60.91A108.857,108.857,0,0,1,431.792,158.877Zm-94.684-55.655a107.853,107.853,0,0,1,47.709,11.071l-33.21,61.177a13.328,13.328,0,0,0-15.948,13.078c0,.162.019.32.024.482l-44.931,14.1a13.3,13.3,0,0,0-16.662-5.964l-30.725-39.994A108.347,108.347,0,0,1,337.108,103.222ZM233.02,154.112l35.916,46.754a13.272,13.272,0,0,0-3.216,8.663,13.531,13.531,0,0,0,.079,1.425l-60.286,18.914a13.344,13.344,0,0,0-10.7-7.045l-12.024-75.029a62.912,62.912,0,0,1,50.231,6.318Zm-95.238,54.019a62.958,62.958,0,0,1,38.926-58.189l11.838,73.875a13.234,13.234,0,0,0-8.044,13.9l-50.137,15.73a13.22,13.22,0,0,0-13.806-5.135l-3.267-5.207a59.17,59.17,0,0,1,27.988-7q1.561,0,3.1.08A62.672,62.672,0,0,1,137.782,208.131Zm-29.919,38.255,3.025,4.821A13.3,13.3,0,0,0,106.276,261l-16.709,5.241A59.732,59.732,0,0,1,107.863,246.385ZM81.852,296.341l49.612,3.2a13.312,13.312,0,0,0,17.4,12.2L176,355H141.28A59.439,59.439,0,0,1,81.852,296.341ZM435.022,355H399.9l9.335-27.5a13.342,13.342,0,0,0,15.416-9.041l70.965,4.579A73.345,73.345,0,0,1,435.022,355Z" transform="translate(-69.144 -90.535)" fill="#f8f8f8"/>
</svg>
