<svg xmlns="http://www.w3.org/2000/svg" viewBox="0 0 2210 500">
  <defs>
    <style>
      .cls-1{fill:#fff}
    </style>
  </defs>
  <path class="cls-1" fill="#474747" d="M524.54 254.77a88.56 88.56 0 0 0-43.6-27.19 124.41 124.41 0 0 0-225.63-57.71 77.75 77.75 0 0 0-113.9 84.87 74.11 74.11 0 0 0 14.72 146.75h301.81a88.48 88.48 0 0 0 66.6-146.72z" id="Text"/>
  <g id="Cloud">
    <g id="Text-2" data-name="Text">
      <g id="Group_1" data-name="Group 1" fill="#ffffff">
        <path id="Path_39" data-name="Path 39" class="cls-1" d="M686.7 351.72h-28.14a43.23 43.23 0 0 1-31.51-10.85 41.69 41.69 0 0 1-11.11-31.26v-81.86a41.77 41.77 0 0 1 11.11-31.26 43.23 43.23 0 0 1 31.51-10.84h28.15a43 43 0 0 1 31.39 11 41.53 41.53 0 0 1 11.24 31.14v12.14a5 5 0 0 1-4.27 5.69 5.54 5.54 0 0 1-1.41 0H702c-3.62 0-5.42-1.9-5.43-5.69v-10.61a12.86 12.86 0 0 0-15.24-15.24h-17.61a15.81 15.81 0 0 0-11.5 3.49 16.29 16.29 0 0 0-3.49 11.75v78.78a16.3 16.3 0 0 0 3.49 11.76 15.86 15.86 0 0 0 11.5 3.49h17.56a12.86 12.86 0 0 0 15.25-15.25v-10.59c0-3.78 1.81-5.68 5.43-5.68h21.65a5 5 0 0 1 5.67 5.68v12.14a41.52 41.52 0 0 1-11.23 31.15 43 43 0 0 1-31.35 10.92z"/>
        <path id="Path_40" data-name="Path 40" class="cls-1" d="M783.58 351.71h-22a4.79 4.79 0 0 1-5.43-4.06 5.16 5.16 0 0 1 0-1.36V175.56a4.8 4.8 0 0 1 4.07-5.43 4.43 4.43 0 0 1 1.36 0h22a4.78 4.78 0 0 1 5.42 4.07 4.43 4.43 0 0 1 0 1.36V346.3a4.79 4.79 0 0 1-4.07 5.42 4.7 4.7 0 0 1-1.35-.01z"/>
        <path id="Path_41" data-name="Path 41" class="cls-1" d="M881.76 351.71h-23a43.16 43.16 0 0 1-31.51-10.85 41.76 41.76 0 0 1-11.11-31.25v-47.53a41.76 41.76 0 0 1 11.11-31.26A43.2 43.2 0 0 1 858.77 220h23a43 43 0 0 1 31.39 11 41.54 41.54 0 0 1 11.24 31.15v47.52a41.54 41.54 0 0 1-11.24 31.15 43 43 0 0 1-31.4 10.89zm-18.08-28.15h13.18a16.65 16.65 0 0 0 11.75-3.36 15.75 15.75 0 0 0 3.49-11.62v-45.46a15.8 15.8 0 0 0-3.49-11.62 16.65 16.65 0 0 0-11.75-3.36h-13.18a12.51 12.51 0 0 0-15 9.45 12.29 12.29 0 0 0 0 5.53v45.46a12.52 12.52 0 0 0 15 15z"/>
        <path id="Path_42" data-name="Path 42" class="cls-1" d="M997.71 351.71h-8.55a39.32 39.32 0 0 1-30.09-10.85 43.93 43.93 0 0 1-10.21-31.25V225.4a4.8 4.8 0 0 1 4.07-5.43 4.43 4.43 0 0 1 1.36 0h22a4.79 4.79 0 0 1 5.43 4.07 5.16 5.16 0 0 1 0 1.36v82.66a16.23 16.23 0 0 0 3.48 11.75 15.86 15.86 0 0 0 11.5 3.49h9.55q17.81 0 17.8-19.63v-78.31a4.81 4.81 0 0 1 4.07-5.43 5.16 5.16 0 0 1 1.36 0h21.69q5.69 0 5.69 5.43v120.89c0 3.61-1.89 5.42-5.69 5.43h-21.69a4.81 4.81 0 0 1-5.43-4.07 5.16 5.16 0 0 1 0-1.36v-8.52h-1a19.58 19.58 0 0 1-10 10.53 34.54 34.54 0 0 1-15.34 3.45z"/>
        <path id="Path_43" data-name="Path 43" class="cls-1" d="M1133.58 351.71H1123a39.31 39.31 0 0 1-30.09-10.85 43.89 43.89 0 0 1-10.2-31.25v-47.53a43.89 43.89 0 0 1 10.2-31.26A39.32 39.32 0 0 1 1123 220h10.59a34.68 34.68 0 0 1 15.24 3.49 19.57 19.57 0 0 1 10.08 10.46h1v-58.4a4.8 4.8 0 0 1 4.07-5.43 4.43 4.43 0 0 1 1.36 0h22a4.79 4.79 0 0 1 5.42 4.08 4.37 4.37 0 0 1 0 1.35v170.74a4.78 4.78 0 0 1-4.07 5.42 4.37 4.37 0 0 1-1.35 0h-22a4.79 4.79 0 0 1-5.43-4.06 5.16 5.16 0 0 1 0-1.36v-8.53h-1a19.61 19.61 0 0 1-10.07 10.47 34.8 34.8 0 0 1-15.26 3.48zm26.35-48V268q0-19.62-17.8-19.63h-11.63a15.77 15.77 0 0 0-11.62 3.49 16.66 16.66 0 0 0-3.36 11.76v44.43a16.65 16.65 0 0 0 3.36 11.75 15.72 15.72 0 0 0 11.62 3.49h11.61q17.81 0 17.8-19.63z"/>
        <path id="Path_44" data-name="Path 44" class="cls-1" d="M1251.1 351.72h-22a4.78 4.78 0 0 1-5.42-4.06 4.43 4.43 0 0 1 0-1.36V191.05a4.79 4.79 0 0 1 4.07-5.42 4.37 4.37 0 0 1 1.35 0h82.41q5.16 0 5.16 5.42v17.56c0 3.62-1.72 5.42-5.16 5.42h-51.92c-2.06 0-3.1.95-3.1 2.84v40.05a2.74 2.74 0 0 0 2.34 3.09 2.42 2.42 0 0 0 .76 0h44.17a4.8 4.8 0 0 1 5.42 4.08 4.37 4.37 0 0 1 0 1.35v17.31c0 3.78-1.8 5.68-5.42 5.69h-44.17c-2.06 0-3.1.94-3.1 2.83v55a4.78 4.78 0 0 1-4.06 5.42 4.49 4.49 0 0 1-1.33.03z"/>
        <path id="Path_45" data-name="Path 45" class="cls-1" d="M1383.61 351.71h-6.23a43.24 43.24 0 0 1-31.51-10.85 41.76 41.76 0 0 1-11.11-31.25v-47.53a41.76 41.76 0 0 1 11.11-31.26 43.24 43.24 0 0 1 31.51-10.82h59.67q5.68 0 5.68 5.43v120.86q0 5.41-5.68 5.42h-21.66a4.78 4.78 0 0 1-5.43-4.06 4.43 4.43 0 0 1 0-1.36v-8.53h-1a19.58 19.58 0 0 1-10.08 10.5 34.51 34.51 0 0 1-15.27 3.45zm26.35-48v-52.44c0-1.9-1-2.84-3.1-2.84h-24.28a15.75 15.75 0 0 0-11.63 3.49 16.69 16.69 0 0 0-3.35 11.75v44.43a16.71 16.71 0 0 0 3.35 11.76 15.79 15.79 0 0 0 11.63 3.49h9.55q17.83 0 17.83-19.68z"/>
        <path id="Path_46" data-name="Path 46" class="cls-1" d="M1471.18 346.3V175.56a4.79 4.79 0 0 1 4.07-5.43 4.43 4.43 0 0 1 1.36 0h22a4.79 4.79 0 0 1 5.43 4.07 5.16 5.16 0 0 1 0 1.36v58.11h1a20.21 20.21 0 0 1 10.08-10.59 33.59 33.59 0 0 1 15.24-3.62h8.27a43.25 43.25 0 0 1 31.51 10.85 41.75 41.75 0 0 1 11.1 31.25v48.05a41.72 41.72 0 0 1-11.1 31.26 43.24 43.24 0 0 1-31.51 10.85h-62a4.79 4.79 0 0 1-5.43-4.06 5.16 5.16 0 0 1-.02-1.36zm35.65-23h26.35a12.85 12.85 0 0 0 15.24-15.23v-44.95a12.86 12.86 0 0 0-9.91-15.24 12.6 12.6 0 0 0-5.33 0h-11.37q-17.79 0-17.79 19.63v52.95a2.51 2.51 0 0 0 2.1 2.86 2.41 2.41 0 0 0 .71 0z"/>
        <path id="Path_47" data-name="Path 47" class="cls-1" d="M1634.43 351.71h-22a4.78 4.78 0 0 1-5.42-4.06 4.43 4.43 0 0 1 0-1.36V225.41a4.78 4.78 0 0 1 4.06-5.43 4.43 4.43 0 0 1 1.36 0h22a4.79 4.79 0 0 1 5.43 4.07 5.16 5.16 0 0 1 0 1.36v8.78h1a20.13 20.13 0 0 1 10.07-10.6 33.64 33.64 0 0 1 15.27-3.59h9.3q5.18 0 5.17 5.43v17.77a6 6 0 0 1-1.16 4.27 5 5 0 0 1-4 .89h-17.79q-17.81 0-17.8 20.14v77.76a4.81 4.81 0 0 1-4 5.46 4.7 4.7 0 0 1-1.49-.01z"/>
        <path id="Path_48" data-name="Path 48" class="cls-1" d="M1698.53 197.77V175.3a4.55 4.55 0 0 1 3.87-5.16 4.05 4.05 0 0 1 1.3 0h22.41c3.44 0 5.16 1.63 5.16 4.91v22.73a4.57 4.57 0 0 1-3.87 5.17 4.64 4.64 0 0 1-1.29 0h-22.47a4.56 4.56 0 0 1-5.12-3.93 4.36 4.36 0 0 1 .01-1.25zm0 148.53V225.44q0-5.41 5.17-5.43h22.24a4.81 4.81 0 0 1 5.43 4.07 4.43 4.43 0 0 1 0 1.36v120.89a5.91 5.91 0 0 1-1.17 4.39 6 6 0 0 1-4 1H1704a4.79 4.79 0 0 1-5.43-4.06 5 5 0 0 1 0-1.39z"/>
        <path id="Path_49" data-name="Path 49" class="cls-1" d="M1844.94 328.68v17.8a5.57 5.57 0 0 1-1.16 4 6 6 0 0 1-4.26 1.16H1801a43.16 43.16 0 0 1-31.52-10.85 41.77 41.77 0 0 1-11.11-31.26V262a41.79 41.79 0 0 1 11.11-31.27 43.21 43.21 0 0 1 31.52-10.82h38.49a4.78 4.78 0 0 1 5.42 4.06 4.5 4.5 0 0 1 0 1.37v17.79a5.53 5.53 0 0 1-1.16 4 6 6 0 0 1-4.26 1.16h-33.33a15.86 15.86 0 0 0-11.5 3.49 16.26 16.26 0 0 0-3.48 11.76V308a16.23 16.23 0 0 0 3.48 11.75 15.81 15.81 0 0 0 11.5 3.49h33.33a4.79 4.79 0 0 1 5.43 4.06 4.44 4.44 0 0 1 .02 1.38z"/>
      </g>
    </g>
    <g id="Cloud-2" data-name="Cloud">
      <path id="Path_50" data-name="Path 50" d="M524.54 254.77a88.56 88.56 0 0 0-43.6-27.19 124.41 124.41 0 0 0-225.63-57.71 77.75 77.75 0 0 0-113.9 84.87 74.11 74.11 0 0 0 14.72 146.75h301.81a88.48 88.48 0 0 0 66.6-146.72zm-135.92 96.58a13.81 13.81 0 0 0 2.36-4l29.76 1.92a13.7 13.7 0 0 0 4.78 8.16l-9.88 29.11zm-76.74-22.48l16.64-30.65a13.55 13.55 0 0 0 10.19-1.14l28.56 37.17a13.48 13.48 0 0 0-2.36 4.86L316.63 336a13.7 13.7 0 0 0-4.75-7.17zM359.75 227l-24.27 44.7a13.3 13.3 0 0 0-7.75.34l-19.09-24.85a13.6 13.6 0 0 0 2.75-8.19v-.28l46.27-14.51a13.91 13.91 0 0 0 2.08 2.75zm-62.06 25.7a13.44 13.44 0 0 0 5.91-1.36l18.63 24.25a13.63 13.63 0 0 0 .47 19.27l.13.13-16.9 31.15a13.62 13.62 0 0 0-15.13 8.16l-57.43-3.71A13.72 13.72 0 0 0 222 320.34L215.33 279a13.72 13.72 0 0 0 8.38-12.63v-.08l62.58-19.63a13.68 13.68 0 0 0 11.4 6.06zM208.87 280l6.57 41a13.77 13.77 0 0 0-8.16 7.95l-34.58-2.24a13.66 13.66 0 0 0-17.24-8.71l-.18.06-10.81-17.23a13.45 13.45 0 0 0 2.9-10.62l51.35-16.1a13.69 13.69 0 0 0 10.15 5.89zm224.86 53.1a13.72 13.72 0 0 0-12.63 9.59l-29.36-1.89a13.66 13.66 0 0 0-19.44-10.68l-28.78-37.47a13.64 13.64 0 0 0-2.3-17.89l24-44.28a13.68 13.68 0 0 0 17.32-8.63 13.49 13.49 0 0 0 .71-4.41 8.51 8.51 0 0 0-.06-1.24l74.46-23.36a110.7 110.7 0 0 1 10.6 38.69zM99.14 305.29l22.41-7a13.68 13.68 0 0 0 17.69 6.49l10.53 16.78a14.21 14.21 0 0 0-2.43 3.51l-52.06-3.36a60.49 60.49 0 0 1 3.9-16.39zm70.3 35.3a13.67 13.67 0 0 0 3.75-7.36l33.25 2.15a13.71 13.71 0 0 0 13.27 12.15l6.56 40.94h-30.62l2.75-1.74zm56.64 5.55a13.77 13.77 0 0 0 7.26-9l56.42 3.64a13.59 13.59 0 0 0 3.72 8.26l-21 38.61 1.54.84H232.9zm72.92 6.41a13.67 13.67 0 0 0 17.36-8.47c.17-.52.32-1.05.44-1.58l48.05 3.09a13.67 13.67 0 0 0 16.4 10.23 14.15 14.15 0 0 0 2.12-.68l25.59 33.31H279.51zm117.72 35.34l1.68.57h-1.24zM533.34 313a75.13 75.13 0 0 1-9.34 36.33l-76.37-4.93a13.74 13.74 0 0 0-7.52-9.95L472.54 239a75.46 75.46 0 0 1 60.84 74zm-78.77-126L381 210a13.9 13.9 0 0 0-2.91-3.26l34-62.58A111.89 111.89 0 0 1 454.61 187zm-97.24-57.18a110.9 110.9 0 0 1 49 11.37L372.22 204a13.68 13.68 0 0 0-16.11 10.74 13.49 13.49 0 0 0-.27 2.69v.5l-46.17 14.48a13.66 13.66 0 0 0-17.12-6.13L261 185.19a111.32 111.32 0 0 1 96.33-55.42zm-106.95 52.24l36.9 48.05A13.67 13.67 0 0 0 284 239a14.48 14.48 0 0 0 .08 1.47l-61.94 19.44a13.7 13.7 0 0 0-11-7.24l-12.35-77.09a64.62 64.62 0 0 1 51.61 6.49zm-97.88 55.5a64.67 64.67 0 0 1 40-59.78l12.16 75.91a13.61 13.61 0 0 0-8.27 14.23l-51.51 16.16a13.58 13.58 0 0 0-14.19-5.27l-3.35-5.34a60.82 60.82 0 0 1 28.75-7.19c1.07 0 2.13 0 3.19.08a64.4 64.4 0 0 1-6.74-28.8zm-30.74 39.31l3.1 4.95a13.69 13.69 0 0 0-4.73 10.07L103 297.27a61.53 61.53 0 0 1 18.83-20.41zm-26.7 51.33l51 3.29a13.68 13.68 0 0 0 14.16 13.18 13.45 13.45 0 0 0 3.72-.65l27.88 44.45h-35.69a61.09 61.09 0 0 1-61.07-60.26zm362.87 60.27h-36.09l9.59-28.26a13.7 13.7 0 0 0 15.84-9.29l72.92 4.71a75.34 75.34 0 0 1-62.26 32.83z" fill="red"/>
    </g>
  </g>
</svg>
