<svg xmlns="http://www.w3.org/2000/svg" viewBox="0 0 500 500"><defs><style>.cls-1{fill:red;}.cls-2{fill:#fff;}</style></defs><title>Cloud Fabric_Logo</title><g id="Base"><path class="cls-1" d="M438.25,470.92a32.33,32.33,0,0,0,32.27-32.26V62.28A32.35,32.35,0,0,0,438.25,30H61.78a32.35,32.35,0,0,0-32.3,32.28V438.74A32.33,32.33,0,0,0,61.75,471Z"/></g><g id="Text"><path class="cls-2" d="M92.94,401.64H84.81q-5.9,0-9.1-3.14t-3.21-9V365.82q0-5.9,3.21-9t9.1-3.13h8.13q5.82,0,9.07,3.17t3.24,9v3.51a1.45,1.45,0,0,1-1.64,1.64H97.35c-1,0-1.57-.55-1.57-1.64v-3.06a3.71,3.71,0,0,0-4.4-4.4H86.3a4.58,4.58,0,0,0-3.32,1,4.73,4.73,0,0,0-1,3.4V389a4.69,4.69,0,0,0,1,3.39,4.58,4.58,0,0,0,3.32,1h5.08a3.72,3.72,0,0,0,4.4-4.4V386c0-1.1.52-1.64,1.57-1.64h6.26a1.44,1.44,0,0,1,1.64,1.64v3.51q0,5.81-3.24,9T92.94,401.64Z"/><path class="cls-2" d="M120.92,401.64h-6.34a1.39,1.39,0,0,1-1.57-1.57V350.75a1.39,1.39,0,0,1,1.57-1.57h6.34a1.39,1.39,0,0,1,1.57,1.57v49.32A1.39,1.39,0,0,1,120.92,401.64Z"/><path class="cls-2" d="M149.28,401.64h-6.65q-5.9,0-9.1-3.14t-3.21-9V375.75q0-5.89,3.21-9t9.1-3.14h6.65q5.82,0,9.06,3.18t3.25,9v13.73q0,5.81-3.25,9T149.28,401.64Zm-5.23-8.14h3.81a4.79,4.79,0,0,0,3.39-1,4.53,4.53,0,0,0,1-3.35V376a4.53,4.53,0,0,0-1-3.35,4.79,4.79,0,0,0-3.39-1h-3.81a3.62,3.62,0,0,0-4.33,4.32v13.14a3.62,3.62,0,0,0,4.33,4.32Z"/><path class="cls-2" d="M182.78,401.64h-2.47c-3.83,0-6.72-1.05-8.69-3.14s-3-5.1-3-9V365.15a1.39,1.39,0,0,1,1.57-1.57h6.34a1.39,1.39,0,0,1,1.57,1.57V389a4.69,4.69,0,0,0,1,3.39,4.56,4.56,0,0,0,3.32,1h2.76q5.14,0,5.15-5.67V365.15a1.39,1.39,0,0,1,1.56-1.57h6.27c1.09,0,1.64.53,1.64,1.57v34.92c0,1-.55,1.57-1.64,1.57H192a1.39,1.39,0,0,1-1.56-1.57v-2.46h-.3a5.68,5.68,0,0,1-2.91,3A10.06,10.06,0,0,1,182.78,401.64Z"/><path class="cls-2" d="M222,401.64H219q-5.75,0-8.69-3.14t-3-9V375.75q0-5.89,3-9t8.69-3.14H222a10,10,0,0,1,4.4,1,5.61,5.61,0,0,1,2.91,3h.3V350.75a1.39,1.39,0,0,1,1.57-1.57h6.34a1.39,1.39,0,0,1,1.57,1.57v49.32a1.39,1.39,0,0,1-1.57,1.57H231.2a1.39,1.39,0,0,1-1.57-1.57v-2.46h-.3a5.61,5.61,0,0,1-2.91,3A10,10,0,0,1,222,401.64Zm7.61-13.88v-10.3c0-3.78-1.71-5.67-5.15-5.67h-3.35a4.54,4.54,0,0,0-3.36,1,4.79,4.79,0,0,0-1,3.39V389a4.79,4.79,0,0,0,1,3.39,4.54,4.54,0,0,0,3.36,1h3.35C227.92,393.43,229.63,391.54,229.63,387.76Z"/><path class="cls-2" d="M256,401.64h-6.34a1.39,1.39,0,0,1-1.57-1.57V355.23a1.39,1.39,0,0,1,1.57-1.57h23.8c1,0,1.49.52,1.49,1.57v5.07c0,1.05-.5,1.57-1.49,1.57h-15c-.6,0-.89.27-.89.82v11.56a.79.79,0,0,0,.89.9h12.76a1.39,1.39,0,0,1,1.57,1.57v5c0,1.1-.53,1.65-1.57,1.65H258.43c-.6,0-.89.27-.89.82v15.89A1.39,1.39,0,0,1,256,401.64Z"/><path class="cls-2" d="M294.24,401.64h-1.79q-5.9,0-9.1-3.14t-3.21-9V375.75q0-5.89,3.21-9t9.1-3.14h17.24c1.09,0,1.64.53,1.64,1.57v34.92c0,1-.55,1.57-1.64,1.57h-6.27a1.39,1.39,0,0,1-1.56-1.57v-2.46h-.3a5.68,5.68,0,0,1-2.91,3A10.07,10.07,0,0,1,294.24,401.64Zm7.62-13.88V372.61c0-.54-.3-.82-.9-.82h-7a4.54,4.54,0,0,0-3.36,1,4.79,4.79,0,0,0-1,3.39V389a4.79,4.79,0,0,0,1,3.39,4.54,4.54,0,0,0,3.36,1h2.76Q301.86,393.43,301.86,387.76Z"/><path class="cls-2" d="M319.54,400.07V350.75a1.39,1.39,0,0,1,1.56-1.57h6.35a1.39,1.39,0,0,1,1.56,1.57v16.79h.3a5.86,5.86,0,0,1,2.91-3.06,9.66,9.66,0,0,1,4.4-1.05H339q5.89,0,9.1,3.14t3.21,9v13.88q0,5.88-3.21,9t-9.1,3.14H321.1A1.39,1.39,0,0,1,319.54,400.07Zm10.29-6.64h7.62a3.72,3.72,0,0,0,4.4-4.4V376a3.72,3.72,0,0,0-4.4-4.4h-3.29q-5.15,0-5.15,5.67v15.3A.73.73,0,0,0,329.83,393.43Z"/><path class="cls-2" d="M366.69,401.64h-6.34a1.39,1.39,0,0,1-1.57-1.57V365.15a1.39,1.39,0,0,1,1.57-1.57h6.34a1.39,1.39,0,0,1,1.57,1.57v2.54h.3a5.75,5.75,0,0,1,2.91-3.06,9.66,9.66,0,0,1,4.4-1.05h2.69c1,0,1.49.53,1.49,1.57v5.15a1.69,1.69,0,0,1-.34,1.23,1.42,1.42,0,0,1-1.15.26h-5.15q-5.15,0-5.15,5.82v22.46A1.39,1.39,0,0,1,366.69,401.64Z"/><path class="cls-2" d="M385.2,357.17v-6.49a1.32,1.32,0,0,1,1.49-1.5h6.49c1,0,1.49.48,1.49,1.42v6.57a1.32,1.32,0,0,1-1.49,1.49h-6.49A1.32,1.32,0,0,1,385.2,357.17Zm0,42.9V365.15c0-1,.49-1.57,1.49-1.57h6.41a1.39,1.39,0,0,1,1.57,1.57v34.92a1.24,1.24,0,0,1-1.49,1.57h-6.42A1.39,1.39,0,0,1,385.2,400.07Z"/><path class="cls-2" d="M427.5,395v5.14a1.58,1.58,0,0,1-.34,1.16,1.69,1.69,0,0,1-1.23.34H414.82q-5.9,0-9.11-3.14t-3.21-9V375.75q0-5.89,3.21-9t9.11-3.14h11.11a1.39,1.39,0,0,1,1.57,1.57v5.15a1.59,1.59,0,0,1-.34,1.16,1.74,1.74,0,0,1-1.23.33h-9.62a4.58,4.58,0,0,0-3.32,1,4.69,4.69,0,0,0-1,3.39V389a4.69,4.69,0,0,0,1,3.39,4.58,4.58,0,0,0,3.32,1h9.62A1.39,1.39,0,0,1,427.5,395Z"/></g><g id="Cloud"><path class="cls-2" d="M408.63,196.43a67.93,67.93,0,0,0-33.42-20.86A95.43,95.43,0,0,0,202.12,131.3a59.64,59.64,0,0,0-87.42,65.1A56.86,56.86,0,0,0,126,309H357.53a67.87,67.87,0,0,0,51.1-112.55ZM304.36,270.48a10.46,10.46,0,0,0,1.81-3.08L329,268.87a10.45,10.45,0,0,0,3.66,6.26l-7.58,22.33Zm-58.87-17.24,12.76-23.51a10.77,10.77,0,0,0,2.81.39,10.47,10.47,0,0,0,5-1.27L288,257.36a10.51,10.51,0,0,0-1.8,3.73l-37-2.38A10.54,10.54,0,0,0,245.49,253.24Zm36.71-78.12-18.61,34.29a10.56,10.56,0,0,0-2.53-.32,10.45,10.45,0,0,0-3.42.58L243,190.61a10.41,10.41,0,0,0,2.11-6.28c0-.08,0-.14,0-.22L280.59,173A10.91,10.91,0,0,0,282.2,175.12Zm-47.6,19.72a10.51,10.51,0,0,0,4.54-1.05l14.29,18.6a10.46,10.46,0,0,0,.46,14.89l-13,23.89A10.94,10.94,0,0,0,239,251a10.52,10.52,0,0,0-9.69,6.44l-44.06-2.85a10.52,10.52,0,0,0-8.75-7.89L171.43,215a10.54,10.54,0,0,0,6.43-9.69s0,0,0-.06l48-15.06A10.52,10.52,0,0,0,234.6,194.84Zm-68.11,20.9,5,31.46a10.53,10.53,0,0,0-6.26,6.1l-26.54-1.72a10.47,10.47,0,0,0-13.36-6.64l-8.29-13.21a10.5,10.5,0,0,0,2.34-6.61,11,11,0,0,0-.12-1.54l39.39-12.36A10.48,10.48,0,0,0,166.49,215.74ZM339,256.52a10.51,10.51,0,0,0-9.68,7.36l-22.54-1.46a10.52,10.52,0,0,0-10.42-9.23,10.34,10.34,0,0,0-4.48,1l-22.08-28.74A10.48,10.48,0,0,0,268,211.74l18.44-34a10.49,10.49,0,0,0,13.78-10c0-.32,0-.64,0-1l57.12-17.92a84.94,84.94,0,0,1,8.12,29.68ZM82.32,235.18l17.19-5.39a10.5,10.5,0,0,0,9.4,5.84,10.38,10.38,0,0,0,4.17-.87l8.08,12.88a10.43,10.43,0,0,0-1.86,2.69l-39.95-2.58A46.62,46.62,0,0,1,82.32,235.18Zm53.91,27.08a10.41,10.41,0,0,0,2.88-5.64l25.51,1.64a10.52,10.52,0,0,0,10.17,9.33l5,31.39H156.32l2.12-1.32Zm43.46,4.26a10.56,10.56,0,0,0,5.57-6.92l43.28,2.79a10.46,10.46,0,0,0,2.85,6.33l-16.08,29.62,1.18.64h-31.6Zm55.92,4.92a10.49,10.49,0,0,0,13.67-7.71l36.83,2.37a10.49,10.49,0,0,0,14.21,7.33L320,299h-99.3Zm90.31,27.11,1.29.43h-1Zm89.49-57.45A57.62,57.62,0,0,1,408.26,269l-58.58-3.78a10.53,10.53,0,0,0-5.77-7.63l24.86-73.23A57.89,57.89,0,0,1,415.41,241.1ZM355,144.4l-56.43,17.71a10.46,10.46,0,0,0-2.24-2.5l26.06-48A85.84,85.84,0,0,1,355,144.4Zm-74.63-43.87A85,85,0,0,1,318,109.26l-26.18,48.22a10.74,10.74,0,0,0-2.06-.21,10.52,10.52,0,0,0-10.51,10.52c0,.13,0,.25,0,.38l-35.42,11.11a10.46,10.46,0,0,0-13.13-4.7l-24.22-31.53A85.43,85.43,0,0,1,280.35,100.53Zm-82,40.12,28.31,36.85a10.24,10.24,0,0,0-2.47,7.95l-47.52,14.91a10.54,10.54,0,0,0-8.44-5.56l-9.47-59.13a49.53,49.53,0,0,1,39.59,5Zm-75.07,42.57a49.63,49.63,0,0,1,30.68-45.86l9.34,58.23a10.51,10.51,0,0,0-6.43,9.68,10.69,10.69,0,0,0,.09,1.27l-39.52,12.4a10.38,10.38,0,0,0-10.88-4.05l-2.58-4.1A46.6,46.6,0,0,1,126,205.27c.82,0,1.64,0,2.45.07A49.32,49.32,0,0,1,123.24,183.22ZM99.66,213.38l2.39,3.8a10.46,10.46,0,0,0-3.64,7.71L85.24,229A47,47,0,0,1,99.66,213.38Zm-20.5,39.37,39.1,2.52A10.49,10.49,0,0,0,132,264.89L153.37,299H126A46.84,46.84,0,0,1,79.16,252.75ZM357.53,299H329.85l7.36-21.67a10.49,10.49,0,0,0,12.15-7.13l55.93,3.61A57.81,57.81,0,0,1,357.53,299Z"/></g></svg>